<svg xmlns="http://www.w3.org/2000/svg" xmlns:xlink="http://www.w3.org/1999/xlink" width="2000" zoomAndPan="magnify" viewBox="0 0 1500 1499.999933" height="2000" preserveAspectRatio="xMidYMid meet" version="1.0"><defs><clipPath id="84371db046"><path d="M 350 337.257812 L 1191.988281 337.257812 L 1191.988281 1163 L 350 1163 Z M 350 337.257812 " clip-rule="nonzero"/></clipPath><clipPath id="97ccd6b608"><path d="M 374 337.257812 L 1191.988281 337.257812 L 1191.988281 1134 L 374 1134 Z M 374 337.257812 " clip-rule="nonzero"/></clipPath></defs><rect x="-150" width="1800" fill="#ffffff" y="-149.999993" height="1799.99992" fill-opacity="1"/><rect x="-150" width="1800" fill="#ffffff" y="-149.999993" height="1799.99992" fill-opacity="1"/><g clip-path="url(#84371db046)"><path fill="#ffffff" d="M 1054.386719 746.285156 L 1042.566406 757.554688 C 1049.714844 768 1056.3125 778.996094 1062.359375 790.816406 C 1119.535156 902.144531 1100.292969 1026.394531 1019.753906 1067.625 C 1015.355469 1069.824219 1010.957031 1071.75 1006.28125 1073.398438 L 1007.933594 1083.570312 L 1007.933594 1083.84375 C 1007.933594 1097.3125 1002.433594 1109.410156 993.914062 1118.207031 C 985.117188 1130.574219 971.921875 1141.296875 955.980469 1152.015625 C 953.78125 1153.664062 951.304688 1155.039062 948.832031 1156.414062 C 939.210938 1160.539062 928.492188 1162.738281 918.046875 1162.738281 L 493.347656 1162.738281 C 469.980469 1162.738281 450.191406 1145.417969 447.441406 1122.328125 L 445.242188 1104.460938 L 352.054688 504.660156 C 346.832031 472.5 357.554688 440.0625 380.644531 417.246094 C 385.316406 412.847656 390.265625 409 394.9375 406.253906 C 402.910156 400.480469 412.804688 396.90625 423.527344 396.90625 L 543.925781 396.90625 L 542.828125 391.410156 C 542.828125 387.835938 552.171875 377.113281 558.21875 374.089844 C 559.320312 370.242188 563.167969 367.492188 567.292969 368.042969 L 586.808594 368.042969 C 587.082031 368.042969 587.082031 367.769531 587.359375 367.769531 C 595.328125 349.902344 625.566406 337.257812 659.929688 337.257812 C 694.5625 337.257812 724.800781 350.175781 733.046875 368.042969 L 758.335938 368.042969 C 763.007812 367.492188 766.859375 370.792969 767.683594 375.464844 L 772.082031 397.179688 L 859.496094 397.179688 C 877.363281 397.179688 892.753906 406.800781 901.550781 420.820312 C 918.59375 425.769531 935.089844 434.839844 949.382812 448.308594 C 970.273438 467.828125 983.46875 493.390625 986.214844 520.328125 C 988.964844 547.269531 981.269531 572.28125 963.949219 590.699219 C 955.703125 599.773438 945.535156 606.644531 934.261719 611.042969 C 934.261719 611.042969 934.261719 611.042969 933.988281 611.042969 L 943.058594 668.492188 C 973.570312 683.335938 1002.984375 706.976562 1028 737.765625 L 1037.34375 728.691406 L 1036.796875 693.234375 L 1135.753906 591.25 L 1134.378906 647.875 L 1192.105469 648.152344 L 1095.621094 746.285156 Z M 1054.386719 746.285156 " fill-opacity="1" fill-rule="nonzero"/></g><path fill="#8c52ff" d="M 522.484375 1133.050781 C 495.546875 1133.050781 473.554688 1111.058594 473.28125 1084.121094 L 374.320312 446.660156 L 374.320312 446.386719 C 374.320312 429.890625 382.570312 415.324219 394.9375 406.527344 C 390.265625 409 385.316406 412.847656 380.644531 417.523438 C 357.277344 440.0625 346.832031 472.773438 352.054688 504.660156 L 445.242188 1104.1875 L 447.441406 1122.054688 C 450.464844 1145.144531 469.980469 1162.460938 493.347656 1162.460938 L 917.769531 1162.460938 C 928.492188 1162.460938 938.9375 1160.539062 948.558594 1156.140625 C 951.03125 1154.765625 953.503906 1153.390625 955.703125 1151.742188 C 971.648438 1141.019531 984.84375 1130.300781 993.636719 1117.929688 C 984.84375 1127 972.199219 1132.773438 958.726562 1132.773438 L 522.484375 1132.773438 Z M 522.484375 1133.050781 " fill-opacity="1" fill-rule="nonzero"/><path fill="#8c52ff" d="M 593.679688 648.976562 L 762.183594 648.976562 L 762.183594 654.472656 L 593.679688 654.472656 Z M 593.679688 648.976562 " fill-opacity="1" fill-rule="nonzero"/><path fill="#8c52ff" d="M 593.679688 555.515625 L 762.183594 555.515625 L 762.183594 561.011719 L 593.679688 561.011719 Z M 593.679688 555.515625 " fill-opacity="1" fill-rule="nonzero"/><path fill="#8c52ff" d="M 714.90625 755.632812 L 606.601562 755.632812 L 606.601562 761.128906 L 712.980469 761.128906 C 713.804688 759.203125 714.355469 757.554688 714.90625 755.632812 Z M 714.90625 755.632812 " fill-opacity="1" fill-rule="nonzero"/><path fill="#8c52ff" d="M 708.03125 869.984375 L 622.269531 869.984375 L 622.269531 875.480469 L 708.855469 875.480469 C 708.582031 873.832031 708.308594 871.90625 708.03125 869.984375 Z M 708.03125 869.984375 " fill-opacity="1" fill-rule="nonzero"/><path fill="#8c52ff" d="M 767.40625 1003.027344 L 645.359375 1003.027344 L 645.359375 1008.527344 L 771.804688 1008.527344 C 770.433594 1006.601562 769.058594 1004.953125 767.40625 1003.027344 Z M 767.40625 1003.027344 " fill-opacity="1" fill-rule="nonzero"/><path fill="#8c52ff" d="M 564.542969 382.886719 L 567.566406 397.457031 L 568.117188 400.203125 L 568.664062 402.953125 L 570.863281 414.222656 L 576.914062 443.910156 C 577.1875 445.835938 578.5625 446.933594 580.210938 446.660156 L 772.628906 446.660156 C 773.179688 446.660156 773.457031 446.660156 774.003906 446.386719 C 774.828125 446.109375 775.65625 445.285156 775.929688 444.460938 L 775.929688 443.910156 L 773.730469 433.464844 L 772.628906 428.242188 L 767.40625 402.679688 L 766.859375 399.929688 L 766.308594 397.179688 L 762.183594 376.289062 C 761.910156 374.367188 760.535156 373.265625 758.886719 373.539062 L 729.472656 373.539062 L 728.925781 371.617188 C 722.601562 355.125 693.738281 342.753906 659.929688 342.753906 C 633.265625 342.753906 609.625 350.449219 597.804688 361.996094 C 596.15625 363.644531 594.78125 365.019531 593.679688 366.945312 C 592.855469 368.316406 592.03125 369.691406 591.207031 371.34375 C 591.207031 371.617188 590.929688 371.617188 590.929688 371.890625 L 590.382812 373.816406 L 566.191406 373.816406 C 565.09375 373.816406 563.992188 374.089844 563.441406 375.191406 C 563.167969 375.464844 563.167969 375.738281 562.894531 376.289062 L 563.441406 379.039062 Z M 564.542969 382.886719 " fill-opacity="1" fill-rule="nonzero"/><path fill="#8c52ff" d="M 511.214844 680.3125 C 518.910156 680.585938 525.785156 677.839844 530.457031 672.890625 C 536.777344 666.019531 538.152344 656.121094 535.128906 646.777344 C 534.03125 648.152344 532.929688 649.25 531.554688 650.625 C 526.058594 656.671875 521.109375 663.269531 516.164062 669.59375 C 513.414062 673.164062 508.742188 672.339844 505.992188 668.21875 C 503.792969 664.917969 501.867188 661.621094 499.394531 658.871094 C 497.195312 656.398438 494.722656 654.199219 492.246094 652.273438 C 491.421875 651.449219 490.597656 650.351562 490.597656 649.527344 C 490.875 646.777344 491.421875 643.753906 492.246094 641.003906 C 492.523438 639.90625 493.621094 639.355469 494.722656 639.628906 C 494.996094 639.628906 494.996094 639.628906 495.273438 639.90625 C 502.417969 642.929688 505.71875 648.976562 509.289062 655.296875 C 509.839844 656.398438 511.214844 656.949219 512.589844 656.398438 C 512.589844 656.398438 512.863281 656.398438 512.863281 656.121094 C 516.710938 652.550781 520.5625 648.976562 524.132812 645.675781 C 526.609375 643.476562 529.082031 641.277344 531.554688 639.355469 C 530.183594 637.15625 528.257812 634.957031 526.332031 633.03125 C 520.285156 627.261719 512.589844 623.960938 504.890625 623.6875 C 504.617188 623.6875 504.066406 623.6875 503.792969 623.6875 C 496.644531 623.6875 490.046875 626.433594 485.652344 631.109375 C 475.753906 641.828125 477.679688 659.972656 490.324219 671.515625 C 495.820312 676.738281 503.519531 680.039062 511.214844 680.3125 Z M 511.214844 680.3125 " fill-opacity="1" fill-rule="nonzero"/><path fill="#8c52ff" d="M 511.214844 755.90625 C 511.488281 755.90625 511.488281 755.90625 511.765625 756.179688 C 515.613281 757.832031 518.363281 760.578125 520.835938 763.601562 C 522.761719 766.078125 524.132812 768.824219 525.785156 771.574219 C 526.058594 772.398438 526.882812 772.675781 527.707031 772.675781 C 528.257812 772.675781 528.53125 772.675781 529.082031 772.398438 C 529.082031 772.398438 529.355469 772.398438 529.355469 772.125 C 533.207031 768.550781 537.054688 764.976562 540.628906 761.679688 C 542.550781 759.753906 544.75 758.105469 546.949219 756.179688 C 545.851562 754.53125 544.199219 752.882812 542.828125 751.507812 C 537.328125 746.285156 530.457031 743.261719 523.585938 742.4375 C 522.761719 742.4375 522.210938 742.160156 521.386719 742.160156 C 520.285156 742.160156 519.1875 742.160156 518.085938 742.160156 C 511.765625 742.710938 506.265625 745.1875 502.144531 749.582031 C 492.246094 760.304688 494.171875 778.445312 506.816406 789.992188 C 512.3125 795.214844 519.1875 798.238281 526.058594 799.0625 C 526.882812 799.0625 527.433594 799.339844 528.257812 799.339844 C 529.355469 799.339844 530.457031 799.339844 531.554688 799.339844 C 537.878906 798.789062 543.375 796.3125 547.5 791.917969 C 554.371094 784.496094 555.472656 773.773438 551.621094 763.878906 C 550.796875 764.976562 549.699219 765.800781 548.875 766.902344 C 543.375 772.949219 538.429688 779.546875 533.480469 785.867188 C 532.65625 786.96875 531.554688 787.519531 530.457031 787.792969 C 528.53125 788.34375 526.332031 787.519531 524.683594 785.867188 C 524.132812 785.320312 523.859375 785.042969 523.585938 784.496094 C 521.386719 781.195312 519.460938 777.898438 516.988281 775.148438 C 514.789062 772.675781 512.3125 770.476562 509.839844 768.550781 C 509.015625 767.726562 508.191406 766.625 508.191406 765.800781 C 508.464844 763.054688 509.015625 760.03125 509.839844 757.28125 C 509.289062 756.179688 510.117188 755.632812 511.214844 755.90625 Z M 511.214844 755.90625 " fill-opacity="1" fill-rule="nonzero"/><path fill="#8c52ff" d="M 542.550781 919.1875 C 543.375 919.1875 543.925781 919.464844 544.75 919.464844 C 545.851562 919.464844 546.949219 919.464844 548.050781 919.464844 C 554.371094 918.914062 559.871094 916.4375 563.992188 912.042969 C 573.890625 901.320312 571.964844 883.179688 559.320312 871.632812 C 553.820312 866.410156 546.949219 863.386719 540.078125 862.5625 C 539.253906 862.5625 538.703125 862.285156 537.878906 862.285156 C 537.605469 862.285156 537.054688 862.285156 536.777344 862.285156 C 535.953125 862.285156 535.128906 862.285156 534.304688 862.285156 C 527.984375 862.835938 522.484375 865.3125 518.363281 869.707031 C 508.464844 880.429688 510.390625 898.570312 523.035156 910.117188 C 528.808594 915.339844 535.679688 918.363281 542.550781 919.1875 Z M 542.550781 919.1875 " fill-opacity="1" fill-rule="nonzero"/><path fill="#8c52ff" d="M 580.761719 1031.339844 C 590.65625 1020.621094 588.734375 1002.476562 576.085938 990.933594 C 570.039062 985.160156 562.34375 981.863281 554.648438 981.585938 C 554.371094 981.585938 553.820312 981.585938 553.546875 981.585938 C 546.398438 981.585938 539.804688 984.335938 535.40625 989.007812 C 525.507812 999.730469 527.433594 1017.871094 540.078125 1029.417969 C 552.722656 1041.238281 570.863281 1042.0625 580.761719 1031.339844 Z M 580.761719 1031.339844 " fill-opacity="1" fill-rule="nonzero"/><path fill="#8c52ff" d="M 778.953125 1008.527344 C 783.351562 1013.75 787.75 1018.695312 792.421875 1023.371094 C 811.390625 1042.886719 832.554688 1058.828125 855.097656 1070.375 C 897.429688 1092.089844 939.761719 1095.390625 975.769531 1080.546875 C 971.371094 1081.09375 966.972656 1081.371094 962.578125 1081.371094 C 911.996094 1081.371094 857.296875 1053.605469 814.136719 1005.503906 C 813.3125 1004.675781 812.765625 1003.851562 811.9375 1003.027344 C 800.667969 990.109375 789.949219 975.816406 780.601562 960.144531 C 780.050781 959.046875 779.226562 957.945312 778.679688 956.847656 C 778.402344 956.574219 778.402344 956.023438 778.128906 955.746094 C 775.378906 950.800781 772.628906 946.125 769.882812 940.902344 C 758.886719 919.464844 750.640625 897.472656 745.140625 875.480469 C 744.59375 873.558594 744.316406 871.90625 743.769531 869.984375 C 734.972656 831.5 734.695312 794.117188 742.394531 761.128906 C 742.941406 759.203125 743.21875 757.554688 743.769531 755.632812 C 752.015625 724.570312 767.683594 697.90625 789.949219 679.214844 C 787.199219 680.3125 784.726562 681.414062 781.976562 682.785156 C 753.664062 697.355469 732.773438 722.644531 720.675781 755.632812 C 720.128906 757.554688 719.578125 759.203125 718.753906 761.128906 C 715.730469 770.75 713.253906 780.644531 711.605469 791.367188 C 707.757812 816.65625 708.582031 843.320312 713.253906 870.257812 C 713.53125 872.183594 714.082031 873.832031 714.355469 875.757812 C 719.578125 901.59375 728.648438 927.433594 741.570312 952.449219 C 742.667969 954.375 743.492188 956.296875 744.59375 958.222656 C 744.867188 958.773438 745.140625 959.046875 745.417969 959.597656 C 753.9375 975.265625 763.558594 989.832031 774.28125 1003.304688 C 775.929688 1004.953125 777.578125 1006.601562 778.953125 1008.527344 Z M 778.953125 1008.527344 " fill-opacity="1" fill-rule="nonzero"/><path fill="#8c52ff" d="M 1057.410156 793.566406 C 1051.640625 782.296875 1045.316406 771.574219 1038.445312 761.679688 L 1016.453125 782.570312 L 1016.179688 782.84375 C 1020.851562 789.992188 1025.25 797.414062 1029.097656 805.109375 C 1040.917969 827.925781 1048.339844 851.566406 1052.1875 874.65625 C 1053.839844 885.101562 1054.664062 895.273438 1054.9375 905.167969 C 1055.488281 956.023438 1035.421875 999.730469 997.761719 1019.796875 C 997.210938 1020.070312 996.9375 1020.347656 996.386719 1020.621094 C 995.835938 1020.894531 995.5625 1020.894531 995.011719 1021.171875 C 994.464844 1021.445312 993.914062 1021.71875 993.363281 1021.996094 C 993.089844 1022.269531 992.8125 1022.269531 992.539062 1022.546875 C 944.707031 1044.261719 884.234375 1023.371094 838.878906 973.890625 C 837.777344 972.789062 836.679688 971.417969 835.578125 970.316406 C 834.480469 969.21875 833.65625 968.117188 832.554688 966.742188 C 821.285156 953.273438 811.113281 938.15625 802.59375 921.386719 C 794.894531 906.269531 789.125 891.148438 784.726562 875.757812 C 784.175781 873.832031 783.625 872.183594 783.351562 870.257812 C 765.484375 799.613281 784.726562 731.992188 835.304688 705.878906 C 846.851562 699.828125 859.21875 696.53125 872.140625 695.707031 C 873.238281 695.707031 874.339844 695.707031 875.4375 695.429688 C 876.539062 695.429688 877.636719 695.429688 878.738281 695.429688 C 894.128906 695.429688 909.796875 698.457031 925.46875 704.777344 C 932.0625 707.25 938.386719 710.550781 944.707031 714.125 C 945.808594 714.671875 946.632812 715.222656 947.734375 715.773438 C 948.832031 716.324219 949.65625 716.871094 950.757812 717.695312 C 955.15625 720.445312 959.277344 723.195312 963.675781 726.492188 C 971.371094 732.265625 979.070312 738.863281 986.214844 746.011719 C 991.714844 751.507812 997.210938 757.554688 1002.160156 763.878906 L 1003.257812 763.054688 L 1024.152344 742.710938 C 1000.785156 713.574219 973.023438 690.757812 944.160156 675.914062 C 943.058594 675.363281 942.234375 674.816406 941.136719 674.539062 C 940.035156 673.992188 939.210938 673.441406 938.113281 673.164062 C 930.964844 669.867188 923.816406 666.84375 916.394531 664.644531 C 894.128906 657.496094 871.863281 655.023438 850.699219 658.320312 C 849.597656 658.597656 848.773438 658.597656 847.675781 658.871094 C 846.574219 659.148438 845.75 659.148438 844.652344 659.421875 C 837.503906 660.796875 830.355469 662.996094 823.484375 666.019531 C 820.460938 667.117188 817.710938 668.492188 814.6875 670.140625 C 811.9375 671.515625 809.464844 672.890625 806.992188 674.539062 C 778.402344 692.132812 758.886719 721.269531 749.265625 756.730469 C 748.714844 758.65625 748.164062 760.304688 747.890625 762.230469 C 739.917969 794.941406 740.195312 832.597656 749.265625 871.082031 C 749.816406 873.007812 750.089844 874.65625 750.640625 876.582031 C 755.863281 897.472656 763.835938 918.636719 774.554688 939.53125 C 777.578125 945.300781 780.601562 950.800781 783.902344 956.296875 C 784.449219 957.398438 785.273438 958.496094 785.824219 959.597656 C 786.375 960.695312 787.199219 961.796875 787.75 962.894531 C 832.28125 1033.816406 900.175781 1076.972656 962.027344 1076.972656 C 972.199219 1076.972656 982.09375 1075.871094 991.714844 1073.398438 C 994.464844 1072.847656 996.9375 1072.023438 999.6875 1071.199219 C 999.960938 1071.199219 1000.234375 1070.925781 1000.511719 1070.925781 C 1001.058594 1070.648438 1001.886719 1070.648438 1002.433594 1070.375 C 1002.710938 1070.375 1002.984375 1070.101562 1003.257812 1070.101562 C 1003.808594 1069.824219 1004.359375 1069.550781 1004.910156 1069.550781 C 1006.28125 1069 1007.65625 1068.449219 1008.757812 1067.902344 C 1011.507812 1066.800781 1013.980469 1065.703125 1016.730469 1064.328125 C 1095.070312 1022.820312 1113.214844 902.144531 1057.410156 793.566406 Z M 1057.410156 793.566406 " fill-opacity="1" fill-rule="nonzero"/><path fill="#8c52ff" d="M 961.203125 803.1875 L 963.675781 800.710938 L 978.792969 785.867188 C 972.472656 778.445312 965.601562 771.574219 958.179688 765.800781 C 957.078125 764.976562 955.980469 764.152344 954.878906 763.328125 C 953.78125 762.503906 952.679688 761.679688 951.855469 760.855469 C 946.359375 756.730469 940.859375 753.433594 935.085938 750.410156 C 927.390625 746.285156 919.695312 743.261719 911.996094 741.335938 C 910.625 741.0625 909.25 740.511719 907.875 740.238281 C 906.5 739.964844 905.125 739.6875 903.75 739.414062 C 886.433594 736.390625 869.390625 738.039062 854.273438 746.011719 C 806.441406 770.476562 795.445312 843.871094 829.257812 910.117188 C 846.023438 942.554688 870.488281 967.292969 896.605469 981.039062 C 900.726562 983.238281 904.851562 985.160156 908.972656 986.808594 C 918.59375 990.660156 928.214844 992.859375 937.835938 993.40625 C 941.960938 993.683594 945.808594 993.683594 949.65625 993.40625 C 959.277344 992.582031 968.347656 990.109375 976.871094 985.710938 C 979.34375 984.335938 981.820312 982.960938 984.015625 981.3125 C 984.566406 981.039062 984.84375 980.761719 985.390625 980.488281 C 986.214844 979.9375 987.042969 979.113281 987.867188 978.5625 C 988.691406 978.011719 989.515625 977.1875 990.339844 976.640625 C 1026.351562 946.125 1032.121094 880.980469 1001.886719 821.605469 C 998.859375 815.832031 995.5625 810.332031 992.265625 805.109375 L 970.273438 826.003906 C 971.648438 828.203125 973.023438 830.675781 974.121094 833.148438 C 989.515625 863.113281 991.4375 895.273438 981.269531 918.363281 C 980.71875 919.738281 979.894531 921.386719 979.070312 922.761719 C 978.246094 924.136719 977.695312 925.234375 976.871094 926.609375 C 975.769531 928.257812 974.671875 930.183594 973.296875 931.558594 C 968.898438 937.054688 963.402344 941.730469 957.078125 945.027344 C 924.640625 961.796875 879.285156 938.703125 856.195312 893.625 C 833.105469 848.542969 840.527344 798.238281 873.238281 781.472656 C 894.679688 770.476562 921.617188 776.796875 944.160156 795.214844 C 948.558594 798.789062 952.679688 802.910156 956.804688 807.308594 L 958.453125 805.660156 Z M 961.203125 803.1875 " fill-opacity="1" fill-rule="nonzero"/><path fill="#8c52ff" d="M 903.476562 836.449219 C 908.425781 833.972656 914.195312 834.25 919.96875 836.996094 C 921.34375 837.820312 922.71875 838.648438 923.816406 839.472656 L 937.011719 826.550781 C 922.992188 812.808594 904.851562 807.308594 890.832031 814.457031 C 871.589844 824.351562 867.191406 854.039062 880.660156 880.703125 C 894.40625 907.367188 921.070312 921.113281 940.3125 911.214844 C 959.550781 901.320312 963.949219 871.632812 950.480469 844.96875 C 950.480469 844.96875 950.480469 844.695312 950.480469 844.695312 L 936.1875 858.4375 C 937.285156 862.285156 937.285156 866.136719 936.738281 869.984375 C 935.636719 876.304688 932.613281 881.253906 927.664062 883.726562 C 925.46875 884.828125 922.992188 885.378906 920.519531 885.378906 C 917.496094 885.378906 914.472656 884.550781 911.171875 882.902344 C 905.675781 880.15625 901.003906 875.207031 897.703125 868.882812 C 894.40625 862.835938 893.304688 855.964844 894.128906 849.917969 C 895.230469 843.871094 898.527344 838.921875 903.476562 836.449219 Z M 903.476562 836.449219 " fill-opacity="1" fill-rule="nonzero"/><path fill="#8c52ff" d="M 520.285156 533.800781 L 766.308594 533.800781 C 764.933594 526.378906 764.382812 518.957031 764.382812 511.535156 L 516.988281 511.535156 C 516.4375 511.535156 515.613281 511.535156 515.0625 511.808594 C 509.839844 512.632812 506.542969 517.582031 507.367188 522.804688 C 508.464844 529.125 513.964844 533.800781 520.285156 533.800781 Z M 520.285156 533.800781 " fill-opacity="1" fill-rule="nonzero"/><path fill="#8c52ff" d="M 771.804688 533.800781 C 774.003906 544.519531 777.855469 554.964844 783.625 565.136719 C 783.902344 565.410156 783.902344 565.6875 784.175781 566.234375 C 788.300781 573.109375 792.972656 579.703125 798.46875 586.027344 C 800.667969 588.5 802.867188 590.699219 805.34375 593.175781 C 825.410156 611.867188 850.421875 622.585938 875.988281 623.410156 C 886.707031 623.6875 897.152344 622.3125 906.5 619.289062 C 908.699219 618.464844 910.898438 617.640625 913.097656 616.8125 C 910.898438 617.089844 908.425781 617.363281 905.949219 617.640625 C 903.476562 617.914062 901.003906 617.914062 898.527344 617.914062 C 897.429688 617.914062 896.054688 617.914062 894.953125 617.914062 C 868.015625 617.089844 841.625 605.542969 820.734375 586.027344 C 813.589844 579.429688 807.542969 572.007812 802.316406 564.3125 C 795.996094 554.691406 791.046875 544.246094 787.75 533.800781 C 785.550781 526.378906 784.175781 518.957031 783.625 511.535156 C 781.703125 488.71875 787.75 466.453125 801.769531 448.859375 C 797.921875 451.609375 794.347656 454.90625 790.773438 458.480469 C 777.027344 473.050781 770.15625 492.015625 769.605469 511.535156 C 769.882812 518.957031 770.433594 526.378906 771.804688 533.800781 Z M 771.804688 533.800781 " fill-opacity="1" fill-rule="nonzero"/><path fill="#8c52ff" d="M 817.710938 533.800781 C 822.109375 545.617188 829.53125 556.613281 839.429688 566.234375 C 840.800781 567.609375 842.175781 568.710938 843.824219 570.082031 C 845.476562 571.457031 847.398438 572.832031 849.046875 574.207031 C 864.992188 585.203125 883.132812 590.425781 900.175781 589.050781 C 903.203125 588.777344 905.949219 588.5 908.972656 587.953125 C 910.898438 587.675781 912.820312 587.125 914.746094 586.578125 C 916.394531 586.027344 918.046875 585.476562 919.695312 584.925781 C 921.070312 584.378906 922.71875 583.828125 924.09375 583.003906 C 924.917969 582.453125 925.742188 582.179688 926.566406 581.628906 C 927.390625 581.078125 928.214844 580.53125 929.039062 580.253906 C 933.4375 577.503906 937.5625 574.207031 941.410156 570.359375 C 959.277344 551.117188 962.027344 522.804688 951.03125 497.515625 C 946.90625 488.167969 940.859375 479.097656 932.890625 471.125 C 932.0625 470.300781 931.238281 469.476562 930.414062 468.652344 C 923.816406 462.605469 916.671875 457.65625 909.25 454.082031 C 908.148438 453.53125 907.324219 453.257812 906.226562 452.707031 C 905.125 452.15625 904.300781 451.882812 903.203125 451.332031 C 890.007812 446.109375 875.988281 444.460938 863.066406 446.660156 C 849.875 448.859375 837.777344 454.90625 828.433594 465.078125 C 816.613281 477.722656 811.390625 494.765625 812.488281 512.082031 C 813.3125 518.957031 814.964844 526.652344 817.710938 533.800781 Z M 876.261719 453.808594 C 881.484375 452.984375 886.433594 456.832031 887.257812 462.054688 L 894.128906 510.160156 L 914.472656 519.503906 L 920.519531 522.253906 L 942.234375 532.148438 C 947.183594 534.347656 949.105469 540.121094 946.90625 544.792969 C 945.257812 548.367188 941.683594 550.292969 938.113281 550.292969 C 936.738281 550.292969 935.363281 550.015625 933.988281 549.46875 L 923.816406 544.792969 L 920.792969 543.421875 L 917.769531 542.046875 L 887.257812 528.027344 L 876.261719 523.078125 L 868.015625 464.527344 C 867.464844 461.230469 868.839844 458.207031 870.765625 456.28125 C 872.414062 455.183594 874.339844 454.082031 876.261719 453.808594 Z M 876.261719 453.808594 " fill-opacity="1" fill-rule="nonzero"/><g clip-path="url(#97ccd6b608)"><path fill="#000000" d="M 893.855469 510.160156 L 914.195312 519.503906 L 917.21875 520.878906 L 920.246094 522.253906 L 941.960938 532.148438 C 946.90625 534.347656 948.832031 540.121094 946.632812 544.792969 C 944.984375 548.367188 941.410156 550.292969 937.835938 550.292969 C 936.460938 550.292969 935.089844 550.015625 933.714844 549.46875 L 923.542969 544.792969 L 920.519531 543.421875 L 917.496094 542.046875 L 886.984375 528.027344 L 875.988281 523.078125 L 867.742188 464.527344 C 867.191406 461.230469 868.566406 458.207031 870.488281 456.28125 C 871.863281 454.90625 873.789062 454.082031 875.710938 453.808594 C 880.933594 452.984375 885.882812 456.832031 886.707031 462.054688 Z M 580.210938 986.808594 C 594.78125 1000.554688 596.980469 1022.269531 585.160156 1035.191406 C 579.386719 1041.511719 571.414062 1044.535156 562.894531 1044.535156 C 553.820312 1044.535156 544.199219 1040.960938 536.777344 1033.816406 C 522.210938 1020.070312 520.011719 998.355469 531.832031 985.4375 C 536.777344 980.210938 543.375 976.914062 550.796875 976.363281 L 543.652344 924.960938 C 534.855469 924.410156 526.609375 920.5625 519.734375 914.242188 C 505.167969 900.496094 502.96875 878.78125 514.789062 865.859375 C 519.734375 860.636719 526.332031 857.339844 533.753906 856.789062 L 526.609375 805.109375 C 517.8125 804.5625 509.566406 800.710938 502.695312 794.390625 C 488.125 780.644531 485.925781 758.929688 497.746094 746.011719 C 502.695312 740.789062 509.289062 737.488281 516.710938 736.9375 L 509.566406 685.535156 C 500.769531 684.984375 492.523438 681.136719 485.652344 674.816406 C 471.082031 661.070312 468.882812 639.355469 480.703125 626.433594 C 486.476562 620.113281 494.722656 616.8125 504.066406 617.089844 C 513.140625 617.363281 521.933594 621.210938 529.082031 627.808594 C 531.28125 630.007812 533.207031 632.207031 534.855469 634.683594 C 542.828125 628.632812 551.347656 623.6875 561.519531 621.210938 C 564.542969 620.386719 567.566406 620.113281 570.589844 619.5625 L 571.140625 620.664062 C 570.589844 621.210938 570.039062 621.761719 569.492188 622.039062 C 557.394531 626.433594 547.773438 633.582031 539.253906 642.105469 C 544.199219 653.925781 542.828125 667.394531 534.304688 676.464844 C 529.355469 681.6875 522.761719 684.984375 515.339844 685.535156 L 522.484375 736.9375 C 531.28125 737.488281 539.527344 741.335938 546.398438 747.660156 C 548.050781 749.308594 549.699219 750.957031 551.074219 752.882812 C 559.320312 746.558594 568.117188 741.335938 578.835938 738.3125 C 581.859375 737.488281 584.882812 737.214844 587.90625 736.664062 L 588.457031 737.765625 C 587.90625 738.3125 587.359375 738.863281 586.808594 739.136719 C 574.4375 743.535156 564.542969 750.957031 555.746094 760.03125 C 561.519531 772.398438 560.417969 786.695312 551.621094 796.039062 C 546.675781 801.261719 540.078125 804.5625 532.65625 805.109375 L 539.804688 856.515625 C 548.597656 857.0625 556.847656 860.914062 563.71875 867.234375 C 578.285156 880.980469 580.484375 902.695312 568.664062 915.613281 C 563.71875 920.835938 557.121094 924.136719 549.699219 924.6875 L 556.847656 976.089844 C 564.816406 976.640625 573.339844 980.488281 580.210938 986.808594 Z M 485.375 630.558594 C 475.480469 641.277344 477.402344 659.421875 490.046875 670.964844 C 496.097656 676.738281 503.792969 680.039062 511.488281 680.3125 C 519.1875 680.585938 526.058594 677.839844 530.730469 672.890625 C 537.054688 666.019531 538.429688 656.121094 535.40625 646.777344 C 534.304688 648.152344 533.207031 649.25 531.832031 650.625 C 526.332031 656.671875 521.386719 663.269531 516.4375 669.59375 C 513.6875 673.164062 509.015625 672.339844 506.265625 668.21875 C 504.066406 664.917969 502.144531 661.621094 499.667969 658.871094 C 497.46875 656.398438 494.996094 654.199219 492.523438 652.273438 C 491.699219 651.449219 490.875 650.351562 490.875 649.527344 C 491.148438 646.777344 491.699219 643.753906 492.523438 641.003906 C 492.796875 639.90625 493.898438 639.355469 494.996094 639.628906 C 495.273438 639.628906 495.273438 639.628906 495.546875 639.90625 C 502.695312 642.929688 505.992188 648.976562 509.566406 655.296875 C 510.117188 656.398438 511.488281 656.949219 512.863281 656.398438 C 512.863281 656.398438 513.140625 656.398438 513.140625 656.121094 C 516.988281 652.550781 520.835938 648.976562 524.410156 645.675781 C 526.882812 643.476562 529.355469 641.277344 531.832031 639.355469 C 530.457031 637.15625 528.53125 634.957031 526.609375 633.03125 C 520.5625 627.261719 512.863281 623.960938 505.167969 623.6875 C 504.890625 623.6875 504.34375 623.6875 504.066406 623.6875 C 496.371094 623.136719 489.773438 625.609375 485.375 630.558594 Z M 525.785156 799.613281 C 526.609375 799.613281 527.15625 799.886719 527.984375 799.886719 C 529.082031 799.886719 530.183594 799.886719 531.28125 799.886719 C 537.605469 799.339844 543.101562 796.863281 547.226562 792.464844 C 554.097656 785.042969 555.195312 774.324219 551.347656 764.429688 C 550.523438 765.527344 549.425781 766.351562 548.597656 767.453125 C 543.101562 773.5 538.152344 780.097656 533.207031 786.417969 C 532.382812 787.519531 531.28125 788.066406 530.183594 788.34375 C 528.257812 788.890625 526.058594 788.066406 524.410156 786.417969 C 523.859375 785.867188 523.585938 785.59375 523.308594 785.042969 C 521.109375 781.746094 519.1875 778.445312 516.710938 775.699219 C 514.511719 773.222656 512.039062 771.023438 509.566406 769.101562 C 508.742188 768.277344 507.917969 767.175781 507.917969 766.351562 C 508.191406 763.601562 508.742188 760.578125 509.566406 757.832031 C 509.839844 756.730469 510.941406 756.179688 512.039062 756.457031 C 512.3125 756.457031 512.3125 756.457031 512.589844 756.730469 C 516.4375 758.378906 519.1875 761.128906 521.660156 764.152344 C 523.585938 766.625 524.960938 769.375 526.609375 772.125 C 526.882812 772.949219 527.707031 773.222656 528.53125 773.222656 C 529.082031 773.222656 529.355469 773.222656 529.90625 772.949219 C 529.90625 772.949219 530.183594 772.949219 530.183594 772.675781 C 534.03125 769.101562 537.878906 765.527344 541.453125 762.230469 C 543.375 760.304688 545.574219 758.65625 547.773438 756.730469 C 546.675781 755.082031 545.027344 753.433594 543.652344 752.058594 C 538.152344 746.835938 531.28125 743.8125 524.410156 742.988281 C 523.585938 742.988281 523.035156 742.710938 522.210938 742.710938 C 521.109375 742.710938 520.011719 742.710938 518.910156 742.710938 C 512.589844 743.261719 507.089844 745.734375 502.96875 750.132812 C 493.074219 760.855469 494.996094 778.996094 507.640625 790.542969 C 512.039062 795.765625 518.910156 798.789062 525.785156 799.613281 Z M 542.550781 919.1875 C 543.375 919.1875 543.925781 919.464844 544.75 919.464844 C 545.851562 919.464844 546.949219 919.464844 548.050781 919.464844 C 554.371094 918.914062 559.871094 916.4375 563.992188 912.042969 C 573.890625 901.320312 571.964844 883.179688 559.320312 871.632812 C 553.820312 866.410156 546.949219 863.386719 540.078125 862.5625 C 539.253906 862.5625 538.703125 862.285156 537.878906 862.285156 C 537.605469 862.285156 537.054688 862.285156 536.777344 862.285156 C 535.953125 862.285156 535.128906 862.285156 534.304688 862.285156 C 527.984375 862.835938 522.484375 865.3125 518.363281 869.707031 C 508.464844 880.429688 510.390625 898.570312 523.035156 910.117188 C 528.808594 915.339844 535.679688 918.363281 542.550781 919.1875 Z M 580.761719 1031.339844 C 590.65625 1020.621094 588.734375 1002.476562 576.085938 990.933594 C 570.039062 985.160156 562.34375 981.863281 554.648438 981.585938 C 554.371094 981.585938 553.820312 981.585938 553.546875 981.585938 C 546.398438 981.585938 539.804688 984.335938 535.40625 989.007812 C 525.507812 999.730469 527.433594 1017.871094 540.078125 1029.417969 C 552.722656 1041.238281 570.863281 1042.0625 580.761719 1031.339844 Z M 1054.386719 746.285156 L 1042.566406 757.554688 C 1049.714844 768 1056.3125 778.996094 1062.359375 790.816406 C 1119.535156 902.144531 1100.292969 1026.394531 1019.753906 1067.625 C 1015.355469 1069.824219 1010.957031 1071.75 1006.28125 1073.398438 L 1007.933594 1083.570312 L 1007.933594 1083.84375 C 1007.933594 1097.3125 1002.433594 1109.410156 993.914062 1118.207031 C 985.117188 1127.277344 972.472656 1133.050781 959.003906 1133.050781 L 522.484375 1133.050781 C 495.546875 1133.050781 473.554688 1111.058594 473.28125 1084.121094 L 374.320312 446.660156 L 374.320312 446.386719 C 374.320312 429.890625 382.570312 415.324219 394.9375 406.527344 C 402.910156 400.753906 412.804688 397.179688 423.527344 397.179688 L 543.925781 397.179688 L 542.828125 391.683594 C 542.828125 388.109375 552.171875 377.390625 558.21875 374.367188 C 559.320312 370.515625 563.167969 367.769531 567.292969 368.316406 L 586.808594 368.316406 C 587.082031 368.316406 587.082031 368.042969 587.359375 368.042969 C 595.328125 349.902344 625.566406 337.257812 659.929688 337.257812 C 694.5625 337.257812 724.800781 350.175781 733.046875 368.042969 L 758.335938 368.042969 C 763.007812 367.492188 766.859375 370.792969 767.683594 375.464844 L 772.082031 397.179688 L 859.496094 397.179688 C 877.363281 397.179688 892.753906 406.800781 901.550781 420.820312 C 918.59375 425.769531 935.089844 434.839844 949.382812 448.308594 C 970.273438 467.828125 983.46875 493.390625 986.214844 520.328125 C 988.964844 547.269531 981.269531 572.28125 963.949219 590.699219 C 955.703125 599.773438 945.535156 606.644531 934.261719 611.042969 C 934.261719 611.042969 934.261719 611.042969 933.988281 611.042969 L 943.058594 668.492188 C 973.570312 683.335938 1002.984375 706.976562 1028 737.765625 L 1037.34375 728.691406 L 1036.796875 693.234375 L 1135.753906 591.25 L 1134.378906 647.875 L 1192.105469 648.152344 L 1095.621094 746.285156 Z M 1017.003906 1062.953125 C 1094.796875 1023.09375 1112.9375 902.144531 1057.136719 793.566406 C 1051.363281 782.296875 1045.042969 771.574219 1038.167969 761.679688 L 1016.179688 782.570312 L 1015.902344 782.84375 L 1014.253906 784.496094 L 1012.332031 786.417969 L 992.539062 805.109375 L 970.546875 826.003906 L 967.800781 828.75 L 965.324219 830.949219 L 962.851562 833.148438 L 954.328125 841.121094 L 950.207031 844.96875 L 935.914062 858.714844 C 937.011719 862.5625 937.011719 866.410156 936.460938 870.257812 C 935.363281 876.582031 932.339844 881.527344 927.390625 884.003906 C 925.191406 885.101562 922.71875 885.652344 920.242188 885.652344 C 917.21875 885.652344 914.195312 884.828125 910.898438 883.179688 C 905.398438 880.429688 900.726562 875.480469 897.429688 869.160156 C 894.128906 863.113281 893.03125 856.238281 893.855469 850.191406 C 894.953125 843.871094 897.976562 838.921875 902.925781 836.449219 C 907.875 833.972656 913.648438 834.25 919.417969 836.996094 C 920.792969 837.820312 922.167969 838.648438 923.269531 839.472656 L 936.460938 826.550781 L 948.28125 815.007812 L 956.527344 807.035156 L 958.179688 805.386719 L 960.652344 802.910156 L 963.125 800.4375 L 978.246094 785.59375 L 998.585938 765.800781 L 1000.511719 763.878906 L 1001.609375 762.777344 L 1002.710938 761.953125 L 1023.601562 741.613281 C 1000.234375 712.472656 972.472656 689.660156 943.609375 674.816406 C 942.511719 674.265625 941.683594 673.714844 940.585938 673.441406 C 939.484375 672.890625 938.660156 672.339844 937.5625 672.066406 C 930.414062 668.769531 923.269531 665.742188 915.847656 663.546875 C 893.582031 656.398438 871.316406 653.925781 850.148438 657.222656 C 849.046875 657.496094 848.222656 657.496094 847.125 657.773438 C 846.023438 658.046875 845.199219 658.046875 844.101562 658.320312 C 836.953125 659.695312 829.808594 661.894531 822.933594 664.917969 C 819.910156 666.019531 817.160156 667.394531 814.136719 669.042969 C 811.390625 670.417969 808.914062 671.792969 806.441406 673.441406 C 777.851562 691.035156 758.335938 720.171875 748.714844 755.632812 C 748.164062 757.554688 747.617188 759.203125 747.339844 761.128906 C 739.371094 793.839844 739.644531 831.5 748.714844 869.984375 C 749.265625 871.90625 749.539062 873.558594 750.089844 875.480469 C 755.3125 896.371094 763.285156 917.539062 774.003906 938.429688 C 777.027344 944.203125 780.050781 949.699219 783.351562 955.199219 C 783.902344 956.296875 784.726562 957.398438 785.273438 958.496094 C 785.824219 959.597656 786.648438 960.695312 787.199219 961.796875 C 831.730469 1032.714844 899.628906 1075.871094 961.476562 1075.871094 C 971.648438 1075.871094 981.542969 1074.773438 991.164062 1072.300781 C 993.914062 1071.75 996.386719 1070.925781 999.136719 1070.101562 C 999.410156 1070.101562 999.6875 1069.824219 999.960938 1069.824219 C 1000.511719 1069.550781 1001.335938 1069.550781 1001.886719 1069.277344 C 1002.160156 1069.277344 1002.433594 1069 1002.710938 1069 C 1003.257812 1068.726562 1003.808594 1068.449219 1004.359375 1068.449219 C 1005.734375 1067.902344 1007.109375 1067.351562 1008.207031 1066.800781 C 1011.78125 1065.425781 1014.53125 1064.328125 1017.003906 1062.953125 Z M 522.484375 1127.550781 L 861.695312 1127.550781 L 788.300781 1026.941406 C 782.527344 1021.171875 777.304688 1014.847656 772.082031 1008.527344 C 770.707031 1006.601562 769.058594 1004.953125 767.683594 1003.027344 C 758.0625 990.382812 748.992188 976.640625 741.019531 962.34375 L 739.09375 959.871094 L 739.371094 959.597656 C 738.546875 957.945312 737.71875 956.574219 736.894531 954.921875 C 723.703125 929.085938 714.355469 902.421875 709.132812 875.757812 C 708.855469 873.832031 708.308594 872.183594 708.03125 870.257812 C 703.085938 843.046875 702.535156 816.105469 706.382812 790.542969 C 708.03125 780.371094 710.230469 770.476562 713.253906 761.128906 C 713.804688 759.203125 714.355469 757.554688 715.179688 755.632812 C 727.550781 720.171875 749.816406 693.234375 779.777344 677.839844 C 788.023438 673.714844 796.546875 670.417969 805.066406 668.21875 C 807.542969 666.84375 810.015625 665.195312 812.488281 664.09375 C 821.835938 659.421875 831.457031 655.847656 841.351562 653.648438 L 794.347656 589.324219 C 788.574219 583.003906 783.625 576.132812 779.503906 569.257812 L 777.855469 567.058594 L 778.128906 566.785156 C 772.355469 556.339844 768.234375 545.070312 766.308594 533.800781 C 764.933594 526.378906 764.382812 518.957031 764.382812 511.535156 C 764.933594 490.367188 772.355469 470.300781 786.925781 454.632812 C 795.445312 445.5625 805.34375 438.964844 816.335938 434.289062 C 817.710938 433.191406 818.8125 432.367188 820.1875 431.542969 C 840.800781 417.523438 867.191406 413.398438 893.03125 418.898438 C 885.058594 409 872.6875 402.679688 859.21875 402.679688 L 772.90625 402.679688 L 778.128906 428.519531 L 781.152344 444.1875 L 781.152344 444.734375 C 780.878906 446.109375 780.328125 447.484375 779.777344 448.585938 C 777.578125 454.082031 761.636719 468.101562 757.238281 468.101562 L 755.3125 468.101562 L 756.136719 471.675781 C 755.585938 474.699219 752.839844 476.898438 749.816406 476.621094 L 557.945312 476.621094 C 554.371094 476.347656 551.074219 474.421875 548.875 471.675781 L 536.777344 411.476562 L 535.128906 402.679688 L 423.25 402.679688 C 421.328125 402.679688 419.402344 402.953125 417.753906 402.953125 C 396.3125 405.703125 379.820312 423.84375 379.820312 445.835938 L 479.054688 1083.292969 L 479.054688 1083.570312 C 478.777344 1108.035156 498.570312 1127.550781 522.484375 1127.550781 Z M 549.425781 397.179688 L 549.972656 399.929688 L 550.523438 402.679688 L 552.449219 412.574219 L 561.792969 459.304688 C 562.070312 461.230469 563.441406 462.328125 565.09375 462.054688 L 757.238281 462.054688 C 759.160156 461.503906 765.484375 456.28125 770.15625 451.882812 L 580.761719 451.882812 C 580.484375 451.882812 580.210938 451.882812 579.9375 451.882812 C 575.8125 451.882812 571.964844 448.859375 571.414062 444.460938 L 565.09375 413.675781 L 562.894531 402.953125 L 562.34375 400.203125 L 561.792969 397.457031 L 558.496094 380.414062 C 554.921875 383.4375 549.148438 389.484375 548.324219 391.683594 Z M 563.71875 378.488281 L 564.542969 382.613281 L 567.566406 397.179688 L 568.117188 399.929688 L 568.664062 402.679688 L 570.863281 413.949219 L 576.914062 443.636719 C 577.1875 445.5625 578.5625 446.660156 580.210938 446.386719 L 772.628906 446.386719 C 773.179688 446.386719 773.457031 446.386719 774.003906 446.109375 C 774.828125 445.835938 775.65625 445.011719 775.929688 444.1875 L 775.929688 443.636719 L 773.730469 433.191406 L 772.628906 427.96875 L 767.40625 402.402344 L 766.859375 399.65625 L 766.308594 396.90625 L 762.183594 376.015625 C 761.910156 374.089844 760.535156 372.992188 758.886719 373.265625 L 729.472656 373.265625 L 728.925781 371.34375 C 722.601562 355.125 693.738281 342.753906 659.929688 342.753906 C 633.265625 342.753906 609.625 350.449219 597.804688 361.996094 C 596.15625 363.644531 594.78125 365.019531 593.679688 366.945312 C 592.855469 368.316406 592.03125 369.691406 591.207031 371.34375 C 591.207031 371.617188 590.929688 371.617188 590.929688 371.890625 L 590.382812 373.816406 L 566.191406 373.816406 C 565.09375 373.816406 563.992188 374.089844 563.441406 375.191406 C 563.167969 375.464844 563.167969 375.738281 562.894531 376.289062 Z M 904.851562 427.96875 C 903.75 427.691406 902.375 427.144531 901.277344 426.867188 C 900.175781 426.59375 898.804688 426.042969 897.703125 425.769531 C 877.085938 420.269531 855.644531 421.097656 837.503906 428.792969 C 835.03125 429.890625 832.554688 430.992188 830.082031 432.367188 C 829.257812 432.640625 828.707031 433.191406 827.882812 433.464844 C 824.859375 435.113281 822.109375 437.039062 819.359375 439.238281 C 816.0625 441.710938 813.039062 444.460938 810.289062 447.484375 C 794.070312 464.804688 787.472656 487.894531 789.398438 511.535156 C 789.949219 518.957031 791.597656 526.378906 793.796875 533.800781 C 797.09375 544.246094 802.316406 554.414062 808.914062 564.035156 C 813.3125 570.359375 818.535156 576.40625 824.585938 581.902344 C 844.652344 600.597656 869.664062 611.316406 895.230469 612.140625 C 898.527344 612.140625 901.828125 612.140625 905.125 611.867188 C 913.097656 611.316406 920.519531 609.667969 927.664062 607.46875 C 928.492188 607.195312 929.316406 606.917969 930.414062 606.644531 C 930.691406 606.644531 930.964844 606.367188 931.238281 606.367188 C 931.789062 606.09375 932.339844 605.820312 932.890625 605.542969 C 935.363281 604.445312 937.835938 603.34375 940.035156 601.96875 C 943.058594 600.320312 945.808594 598.398438 948.558594 596.472656 C 952.40625 593.722656 955.980469 590.425781 959.554688 586.851562 C 975.496094 569.535156 982.917969 546.167969 980.445312 520.878906 C 977.695312 495.316406 965.324219 471.125 945.257812 452.433594 C 933.4375 441.164062 919.417969 432.917969 904.851562 427.96875 Z M 743.769531 755.632812 C 752.015625 724.570312 767.683594 697.90625 789.949219 679.214844 C 787.199219 680.3125 784.726562 681.414062 781.976562 682.785156 C 753.664062 697.355469 732.773438 722.644531 720.675781 755.632812 C 720.128906 757.554688 719.578125 759.203125 718.753906 761.128906 C 715.730469 770.75 713.253906 780.644531 711.605469 791.367188 C 707.757812 816.65625 708.582031 843.320312 713.253906 870.257812 C 713.53125 872.183594 714.082031 873.832031 714.355469 875.757812 C 719.578125 901.59375 728.648438 927.433594 741.570312 952.449219 C 742.667969 954.375 743.492188 956.296875 744.59375 958.222656 C 744.867188 958.773438 745.140625 959.046875 745.417969 959.597656 C 753.9375 975.265625 763.558594 989.832031 774.28125 1003.304688 C 775.65625 1005.226562 777.304688 1006.875 778.679688 1008.800781 C 783.078125 1014.023438 787.472656 1018.972656 792.148438 1023.644531 C 811.113281 1043.160156 832.28125 1059.105469 854.820312 1070.648438 C 897.152344 1092.367188 939.484375 1095.664062 975.496094 1080.820312 C 971.097656 1081.371094 966.699219 1081.644531 962.300781 1081.644531 C 911.722656 1081.644531 857.019531 1053.882812 813.863281 1005.777344 C 813.039062 1004.953125 812.488281 1004.128906 811.664062 1003.304688 C 800.394531 990.382812 789.671875 976.089844 780.328125 960.421875 C 779.777344 959.320312 778.953125 958.222656 778.402344 957.121094 C 778.128906 956.847656 778.128906 956.296875 777.855469 956.023438 C 775.105469 951.074219 772.355469 946.402344 769.605469 941.179688 C 758.613281 919.738281 750.363281 897.746094 744.867188 875.757812 C 744.316406 873.832031 744.042969 872.183594 743.492188 870.257812 C 734.695312 831.773438 734.421875 794.390625 742.117188 761.402344 C 742.941406 759.203125 743.492188 757.554688 743.769531 755.632812 Z M 784.175781 566.234375 C 788.300781 573.109375 792.972656 579.703125 798.46875 586.027344 C 800.667969 588.5 802.867188 590.699219 805.34375 593.175781 C 825.410156 611.867188 850.421875 622.585938 875.988281 623.410156 C 886.707031 623.6875 897.152344 622.3125 906.5 619.289062 C 908.699219 618.464844 910.898438 617.640625 913.097656 616.8125 C 910.898438 617.089844 908.425781 617.363281 905.949219 617.640625 C 903.476562 617.914062 901.003906 617.914062 898.527344 617.914062 C 897.429688 617.914062 896.054688 617.914062 894.953125 617.914062 C 868.015625 617.089844 841.625 605.542969 820.734375 586.027344 C 813.589844 579.429688 807.542969 572.007812 802.316406 564.3125 C 795.996094 554.691406 791.046875 544.246094 787.75 533.800781 C 785.550781 526.378906 784.175781 518.957031 783.625 511.535156 C 781.703125 488.71875 787.75 466.453125 801.769531 448.859375 C 797.921875 451.609375 794.347656 454.90625 790.773438 458.480469 C 777.027344 473.050781 770.15625 492.015625 769.605469 511.535156 C 769.332031 518.957031 769.882812 526.378906 771.53125 533.800781 C 773.730469 544.519531 777.578125 554.964844 783.351562 565.136719 C 783.902344 565.410156 784.175781 565.6875 784.175781 566.234375 Z M 784.175781 566.234375 " fill-opacity="1" fill-rule="nonzero"/></g></svg>